<svg xmlns="http://www.w3.org/2000/svg" viewBox="0 0 30.45 30.45"><defs><style>.cls-1{fill:#362a67;}</style></defs><title>Comment</title><g id="Layer_2" data-name="Layer 2"><g id="Layer_1-2" data-name="Layer 1"><path class="cls-1" d="M0,28.15c0-.16.06-.33.08-.49.24-1.37.56-2.73.9-4.07A33.81,33.81,0,0,1,2,20.17a9.6,9.6,0,0,1,.73-1.6A2.86,2.86,0,0,1,3.25,18Q8.49,12.72,13.73,7.47l1.82-1.81a.12.12,0,0,1,0,0l9.24,9.24-.06.06L16.4,23.29l-3.93,3.94a3.83,3.83,0,0,1-1.09.72,17.81,17.81,0,0,1-2.64,1q-2,.62-4,1.05c-.65.14-1.31.26-2,.39l-.46.08H1.93A2.12,2.12,0,0,1,.1,28.91a3.13,3.13,0,0,1-.1-.44Z"/><path class="cls-1" d="M27.88,11.77,18.65,2.54l.21-.19a9.93,9.93,0,0,1,1.22-1.11A6.61,6.61,0,0,1,23,.07,6.52,6.52,0,0,1,28.71,11C28.45,11.25,28.16,11.5,27.88,11.77Z"/></g></g></svg>