<svg xmlns="http://www.w3.org/2000/svg" viewBox="0 0 27.69 26.15"><defs><style>.cls-1{fill:#362a67;}</style></defs><title>Heart</title><g id="Layer_2" data-name="Layer 2"><g id="Layer_1-2" data-name="Layer 1"><path class="cls-1" d="M13.76,3.49a11.37,11.37,0,0,0,1.46-1.22A7.71,7.71,0,0,1,18.5.42a7.69,7.69,0,0,1,7.66,3.16A9.85,9.85,0,0,1,27,12.51a17.31,17.31,0,0,1-3.57,6,33.53,33.53,0,0,1-5.87,5.29c-.92.62-1.83,1.26-2.77,1.85a4.12,4.12,0,0,1-1.05.47,1.48,1.48,0,0,1-1-.3c-3.19-2.45-6.43-4.85-9-8A15.59,15.59,0,0,1,.18,10.53a9.34,9.34,0,0,1,2.4-8.46,6.84,6.84,0,0,1,9.29-.49A15.5,15.5,0,0,1,13.76,3.49Z"/></g></g></svg>